<svg width="402" height="331" viewBox="0 0 402 331" fill="none" xmlns="http://www.w3.org/2000/svg">
<path d="M108.379 52.2285L108.793 54.7899H108.733L108.379 52.2285Z" fill="#ABBAC2"/>
<path d="M109.095 60.0747C109.07 61.8481 108.921 63.6176 108.646 65.3699L108.327 65.3181C108.645 63.5863 108.838 61.834 108.905 60.0747H109.095Z" fill="#ABBAC2"/>
<path d="M107.44 70.5525C106.904 72.2478 106.247 73.9021 105.473 75.5027L105.008 75.2699C105.798 73.704 106.47 72.081 107.017 70.4146L107.44 70.5525Z" fill="#ABBAC2"/>
<path d="M102.783 80.1088C101.773 81.5774 100.645 82.9618 99.4111 84.2483L98.9368 83.7913C100.162 82.5423 101.287 81.1986 102.3 79.7725L102.783 80.1088Z" fill="#ABBAC2"/>
<path d="M95.4087 87.793C93.9699 88.8564 92.4404 89.7913 90.838 90.5872L90.5103 89.9145C92.0765 89.1458 93.5715 88.2396 94.9775 87.2065L95.4087 87.793Z" fill="#ABBAC2"/>
<path d="M85.8791 92.5193C84.1542 92.9998 82.3914 93.3316 80.6098 93.5111L80.5322 92.7177C82.281 92.5504 84.0122 92.233 85.7067 91.769L85.8791 92.5193Z" fill="#ABBAC2"/>
<path d="M75.2379 93.694C73.4544 93.6325 71.6769 93.4539 69.9169 93.1593L70.0549 92.2969C71.7663 92.5881 73.4947 92.7696 75.2293 92.8402L75.2379 93.694Z" fill="#ABBAC2"/>
<path d="M64.7075 91.9433C62.9948 91.4195 61.33 90.7501 59.7314 89.9425L60.1023 89.2095C61.6648 89.9814 63.2888 90.6218 64.9576 91.124L64.7075 91.9433Z" fill="#ABBAC2"/>
<path d="M55.2985 86.8375C54.6368 86.1789 54.1018 85.4042 53.7203 84.5522C53.3585 83.6616 53.2569 82.6867 53.4271 81.7407L54.1946 81.8528C54.0511 82.6603 54.1409 83.492 54.4534 84.2503C54.7935 85.0108 55.2766 85.6988 55.8763 86.277L55.2985 86.8375Z" fill="#ABBAC2"/>
<path d="M56.0315 76.919C56.4587 76.6037 56.9856 76.4536 57.5148 76.4964C58.0235 76.5502 58.5072 76.7443 58.9119 77.057C59.7034 77.6208 60.3049 78.4118 60.6367 79.3251L59.9554 79.5752C59.6719 78.8105 59.1713 78.1451 58.5152 77.6607C58.1983 77.4175 57.8181 77.2708 57.42 77.2381C57.0608 77.2132 56.705 77.3206 56.4196 77.5399L56.0315 76.919Z" fill="#ABBAC2"/>
<path d="M59.4387 84.628C58.4114 86.1201 57.123 87.4144 55.6355 88.4484L55.2905 87.9655C56.7062 86.967 57.9254 85.7156 58.8868 84.2744L59.4387 84.628Z" fill="#ABBAC2"/>
<path d="M50.6421 90.4332C48.8445 90.5997 47.032 90.3882 45.321 89.8122L45.4504 89.3896C47.1039 89.9284 48.8533 90.1077 50.5817 89.9157L50.6421 90.4332Z" fill="#ABBAC2"/>
<path d="M40.5346 87.4573C39.0534 86.4795 37.6649 85.3681 36.3865 84.137L36.5245 83.999C37.819 85.1873 39.219 86.2553 40.7071 87.1899L40.5346 87.4573Z" fill="#ABBAC2"/>
<path d="M32.8417 80.2042L31.3066 78.1172L32.8935 80.1697L32.8417 80.2042Z" fill="#ABBAC2"/>
<path d="M318.858 0L321.272 0.957269L321.247 1.00901L318.858 0Z" fill="#ABBAC2"/>
<path d="M325.972 3.39941C327.481 4.32432 328.922 5.3561 330.284 6.48682L330.077 6.72829C328.749 5.57394 327.34 4.51623 325.86 3.56327L325.972 3.39941Z" fill="#ABBAC2"/>
<path d="M334.141 10.1685C335.327 11.4917 336.414 12.9013 337.392 14.3856L336.961 14.6616C336.014 13.1879 334.962 11.7843 333.813 10.4617L334.141 10.1685Z" fill="#ABBAC2"/>
<path d="M339.979 19.0508C340.728 20.6687 341.345 22.3443 341.824 24.0613L341.186 24.2338C340.742 22.5439 340.165 20.8916 339.461 19.2923L339.979 19.0508Z" fill="#ABBAC2"/>
<path d="M342.876 29.314C343.059 31.0906 343.082 32.8801 342.945 34.6609L342.195 34.6091C342.332 32.8691 342.317 31.1205 342.152 29.383L342.876 29.314Z" fill="#ABBAC2"/>
<path d="M342.014 39.9469C341.545 41.6736 340.934 43.3582 340.185 44.9833L339.452 44.647C340.19 43.067 340.796 41.4286 341.263 39.7485L342.014 39.9469Z" fill="#ABBAC2"/>
<path d="M337.607 49.6392C336.642 51.1427 335.582 52.583 334.433 53.9512L333.786 53.4079C334.915 52.0737 335.961 50.6711 336.917 49.208L337.607 49.6392Z" fill="#ABBAC2"/>
<path d="M330.724 57.8263C329.401 59.0329 327.979 60.1263 326.473 61.0948L326.024 60.3963C327.487 59.4462 328.869 58.376 330.155 57.1968L330.724 57.8263Z" fill="#ABBAC2"/>
<path d="M321.54 63.3196C320.634 63.5517 319.692 63.616 318.763 63.5093C317.806 63.3676 316.909 62.958 316.176 62.3278L316.659 61.7241C317.279 62.2588 318.039 62.6058 318.849 62.7245C319.673 62.8331 320.51 62.7833 321.316 62.5779L321.54 63.3196Z" fill="#ABBAC2"/>
<path d="M313.382 57.6255C313.33 57.0966 313.471 56.5669 313.779 56.1335C314.083 55.7247 314.495 55.4083 314.969 55.2194C315.858 54.8414 316.84 54.7363 317.789 54.9175L317.651 55.6333C316.849 55.4883 316.023 55.5781 315.271 55.8921C314.93 56.0384 314.633 56.2701 314.408 56.5647C314.209 56.8644 314.12 57.2244 314.158 57.5824L313.382 57.6255Z" fill="#ABBAC2"/>
<path d="M321.747 58.6255C322.506 60.269 322.959 62.0371 323.084 63.843L322.489 63.8948C322.351 62.1683 321.898 60.4817 321.152 58.9187L321.747 58.6255Z" fill="#ABBAC2"/>
<path d="M322.256 69.1567C321.484 70.7896 320.376 72.2413 319.005 73.417L318.712 73.0892C320.013 71.9388 321.059 70.5287 321.782 68.9497L322.256 69.1567Z" fill="#ABBAC2"/>
<path d="M314.537 76.3754C312.942 77.1509 311.28 77.7773 309.57 78.2468L309.509 78.0657C311.193 77.5573 312.827 76.8962 314.39 76.0908L314.537 76.3754Z" fill="#ABBAC2"/>
<path d="M304.379 79.2469L301.8 79.5056L304.37 79.1865L304.379 79.2469Z" fill="#ABBAC2"/>
<path d="M98.9795 21.4053C98.9795 21.4053 82.4817 82.7308 84.1548 85.6026C85.8279 88.4744 126.275 103.04 139.349 92.5795C139.349 92.5795 138.357 82.9982 139.702 75.3314C141.048 67.6646 149.853 30.4346 149.853 30.4346L98.9795 21.4053Z" fill="white"/>
<path d="M130.569 93.8816C131.875 92.8178 133.092 91.6497 134.209 90.3889C134.763 89.77 135.282 89.1192 135.761 88.4399C136.261 87.7672 136.684 87.0428 137.175 86.3184C137.018 87.1831 136.727 88.0181 136.313 88.7935C135.915 89.5768 135.417 90.3046 134.829 90.9581C134.251 91.6124 133.594 92.1918 132.872 92.6829C132.176 93.2069 131.398 93.6119 130.569 93.8816Z" fill="#ABBAC2"/>
<path d="M103.473 31.8467L108.026 32.7608L112.571 33.7181L121.661 35.6154C124.679 36.2536 127.698 36.8314 130.75 37.4006C133.803 37.9697 136.839 38.4786 139.926 38.7459C139.159 38.7459 138.374 38.7459 137.598 38.7459L135.278 38.6165C133.734 38.4613 132.182 38.2888 130.647 38.0732C127.577 37.6593 124.524 37.0987 121.48 36.4778C118.435 35.8569 115.443 35.1669 112.424 34.3821C109.406 33.5974 106.431 32.7867 103.473 31.8467Z" fill="#ABBAC2"/>
<path d="M102.403 38.9995L106.957 39.9223L111.502 40.8795L120.583 42.7423C123.61 43.3805 126.62 43.967 129.681 44.5361C132.743 45.1053 135.77 45.6055 138.857 45.8729C138.081 45.8729 137.305 45.8729 136.529 45.8729L134.2 45.7349C132.656 45.5797 131.113 45.4158 129.578 45.2002C126.499 44.7776 123.446 44.2171 120.41 43.5961C117.375 42.9752 114.373 42.2853 111.346 41.5005C108.319 40.7157 105.353 39.9395 102.403 38.9995Z" fill="#ABBAC2"/>
<path d="M101.326 46.1904L105.879 47.1132L110.424 48.0705L119.505 49.9678C122.532 50.6059 125.542 51.1837 128.604 51.7529C131.665 52.3221 134.692 52.8309 137.779 53.0983C137.003 53.0983 136.227 53.0983 135.451 53.0983L133.131 52.9603C131.579 52.8051 130.035 52.6412 128.5 52.4256C125.43 52.0117 122.368 51.4511 119.333 50.8302C116.297 50.2092 113.296 49.5107 110.277 48.7345C107.259 47.9584 104.284 47.096 101.326 46.1904Z" fill="#ABBAC2"/>
<path d="M100.247 53.3052L104.809 54.228L109.354 55.1852L118.435 57.0739C121.462 57.7121 124.472 58.2899 127.534 58.8677C130.595 59.4455 133.622 59.9371 136.71 60.2044C135.934 60.2044 135.157 60.2044 134.381 60.2044L132.053 60.0751C130.509 59.9198 128.965 59.756 127.43 59.5317C124.351 59.1178 121.299 58.5572 118.263 57.9363C115.227 57.3154 112.226 56.6254 109.199 55.8406C106.172 55.0559 103.205 54.2452 100.247 53.3052Z" fill="#ABBAC2"/>
<path d="M99.1783 60.4531L103.732 61.3759L108.277 62.3332L117.358 64.2218C120.385 64.8686 123.395 65.4465 126.456 66.0156C129.518 66.5848 132.545 67.085 135.632 67.3524C134.856 67.3524 134.08 67.3524 133.304 67.3524L130.975 67.2144C129.431 67.0591 127.888 66.8953 126.353 66.6797C123.274 66.2571 120.221 65.6965 117.185 65.0756C114.15 64.4547 111.149 63.7648 108.13 62.9886C105.112 62.2124 102.136 61.4018 99.1783 60.4531Z" fill="#ABBAC2"/>
<path d="M98.1003 67.6128L102.662 68.5269L107.199 69.4842L116.288 71.3815C119.315 72.0197 122.325 72.5975 125.387 73.1667C128.448 73.7359 131.467 74.2447 134.563 74.512C133.787 74.512 133.01 74.512 132.234 74.512L129.906 74.3827C128.362 74.2274 126.818 74.055 125.283 73.8394C122.205 73.4254 119.152 72.8648 116.116 72.2439C113.08 71.623 110.079 70.9331 107.052 70.1483C104.025 69.3635 101.058 68.5528 98.1003 67.6128Z" fill="#ABBAC2"/>
<path d="M97.0314 74.7612L101.585 75.684L106.13 76.6413L115.202 78.5299C118.229 79.1681 121.239 79.7545 124.301 80.3237C127.362 80.8929 130.389 81.3931 133.477 81.6605C132.7 81.6605 131.924 81.6605 131.148 81.6605L128.82 81.5225C127.276 81.3672 125.732 81.2034 124.197 80.9878C121.118 80.5652 118.065 80.0046 115.03 79.3837C111.994 78.7628 108.993 78.0729 105.975 77.2881C102.956 76.5033 99.9894 75.7013 97.0314 74.7612Z" fill="#ABBAC2"/>
<path d="M325.3 170.661C325.3 170.661 341.488 155.914 339.306 148.558C337.124 141.202 340.858 133.035 335.856 124.178C330.854 115.321 328.552 116.804 316.745 114.691C304.939 112.578 303.111 106.119 292.65 114.165C282.396 122.056 284.612 126.981 297.574 128.145C305.336 128.835 314.883 126.592 315.771 140.693C316.528 151.296 319.794 161.568 325.3 170.661Z" fill="#7FC991"/>
<path d="M332.044 202.526C328.12 199.646 333.053 188.409 340.599 183.019C345.773 179.302 350.206 183.476 357.701 178.707C362.996 175.352 363.151 171.807 367.075 171.393C371.715 170.945 372.913 175.783 379.942 178.077C386.712 180.293 388.842 176.87 392.878 179.129C400.364 183.286 403.96 200.784 398.544 205.372C395.232 208.175 389.127 197.817 380.925 200.155C376.829 201.31 376.613 204.26 372.577 204.786C366.954 205.527 364.815 200.103 359.158 198.464C348.335 195.308 336.416 205.734 332.044 202.526Z" fill="#7FC991"/>
<path d="M294.633 277.667C297.709 267.232 301.239 256.946 305.224 246.81C307.181 241.731 309.337 236.737 311.588 231.779C313.839 226.82 316.28 221.947 318.953 217.195C321.577 212.398 324.705 207.894 328.284 203.759L331.079 200.767C332.027 199.792 333.062 198.895 334.054 197.955C334.571 197.498 335.046 197.007 335.58 196.584L337.184 195.308C338.235 194.435 339.331 193.62 340.47 192.867C344.942 189.72 349.837 187.223 355.01 185.45C360.158 183.619 365.597 182.742 371.06 182.863C365.621 182.877 360.23 183.876 355.148 185.813C350.052 187.65 345.239 190.193 340.85 193.367C339.72 194.109 338.685 194.988 337.633 195.834L336.055 197.11C335.528 197.533 335.063 198.024 334.554 198.473C333.579 199.404 332.562 200.301 331.622 201.267L328.871 204.251C325.351 208.361 322.278 212.833 319.703 217.592C317.018 222.301 314.552 227.127 312.304 232.072C310.019 236.996 307.88 241.99 305.836 247.017C303.792 252.045 301.826 257.116 299.98 262.23C298.135 267.344 296.306 272.493 294.633 277.667Z" fill="#40635B"/>
<path d="M305.232 237.643C307.725 228.656 310.338 219.696 312.994 210.744L320.98 183.915C323.671 174.98 326.353 166.046 328.802 157.051C330.076 152.572 331.115 148.03 331.915 143.442C332.329 141.167 332.479 138.852 332.364 136.543C332.267 135.388 331.996 134.254 331.562 133.18C331.105 132.106 330.45 131.129 329.63 130.299C330.483 131.107 331.179 132.066 331.682 133.128C332.14 134.207 332.431 135.35 332.545 136.517C332.733 138.856 332.649 141.209 332.295 143.529C331.572 148.15 330.605 152.73 329.397 157.249C327.077 166.296 324.386 175.231 321.756 184.182L313.598 210.908C310.838 219.8 308.07 228.708 305.232 237.643Z" fill="#40635B"/>
<path d="M308.742 245.103C308.742 245.103 309.466 226.829 315.426 224.466C321.385 222.103 324.765 215.454 333.217 214.169C341.669 212.884 341.841 215.169 349.318 221.819C356.795 228.468 361.969 226.346 362.082 237.342C362.194 248.148 357.821 249.226 350.37 241.318C345.912 236.583 342.462 229.158 332.743 235.85C325.579 240.775 317.358 243.945 308.742 245.103Z" fill="#7FC991"/>
<path d="M296.979 278.236C298.129 273.061 299.54 267.97 301.213 262.963C302.877 257.936 304.841 253.015 307.095 248.224C309.356 243.426 312.083 238.862 315.236 234.598C316.004 233.52 316.901 232.537 317.763 231.528C318.634 230.528 319.555 229.572 320.523 228.665L321.238 227.975L322.015 227.345L323.558 226.095C324.602 225.284 325.757 224.629 326.853 223.904L325.257 225.077C324.715 225.447 324.194 225.847 323.696 226.276L322.23 227.595L321.497 228.251C321.264 228.484 321.04 228.725 320.816 228.967C319.953 229.932 318.97 230.829 318.177 231.882C317.383 232.934 316.495 233.9 315.771 234.995C312.725 239.279 310.081 243.834 307.871 248.604C305.6 253.35 303.585 258.216 301.834 263.178L300.523 266.912L299.299 270.672L298.109 274.441L296.979 278.236Z" fill="#40635B"/>
<path d="M212.231 24.5527H184.694V48.5534H212.231V24.5527Z" fill="#819985"/>
<path d="M216.818 38.1971H180.106V13.4203C192.109 10.0311 204.816 10.0311 216.818 13.4203V38.1971Z" fill="#050C04"/>
<path d="M182.417 14.9546C183.711 15.3138 185.024 15.6017 186.35 15.817C187.669 16.0412 188.989 16.2309 190.325 16.3431C192.98 16.593 195.645 16.7053 198.311 16.6794C199.648 16.6277 200.976 16.6277 202.313 16.5069L204.305 16.3689C204.966 16.2884 205.63 16.2195 206.297 16.162C208.962 15.886 211.601 15.4203 214.257 14.9805C212.963 15.3599 211.67 15.7221 210.359 16.0498C209.048 16.3776 207.772 16.6363 206.392 16.8174C203.725 17.2483 201.03 17.4904 198.328 17.5418C195.622 17.5725 192.917 17.3909 190.239 16.9985C187.559 16.6359 184.932 15.9496 182.417 14.9546Z" fill="#94C8E3"/>
<path d="M182.469 19.396C182.676 22.1557 182.711 24.8981 182.806 27.6406C182.806 29.0118 182.9 30.3744 182.969 31.7456C183.017 33.1166 183.138 34.484 183.332 35.842C182.795 34.557 182.435 33.2051 182.262 31.8232C182.06 30.4489 181.939 29.0637 181.9 27.6751C181.817 24.9034 182.008 22.1303 182.469 19.396Z" fill="#94C8E3"/>
<path d="M187.376 20.3188C187.695 22.9061 187.773 25.4933 187.85 28.0805L187.911 31.9527V33.8931C187.902 34.5373 187.971 35.1802 188.118 35.8076C187.586 34.6022 187.277 33.311 187.203 31.9958C187.057 30.7022 186.988 29.4086 186.953 28.0977C186.888 25.4977 187.029 22.8965 187.376 20.3188Z" fill="#94C8E3"/>
<path d="M192.965 21.1807C193.189 23.5005 193.24 25.7945 193.335 28.0799C193.335 29.2269 193.43 30.3739 193.499 31.5295C193.551 32.6845 193.664 33.8359 193.836 34.9791C193.338 33.9159 192.998 32.7857 192.827 31.6244C192.632 30.4836 192.514 29.3312 192.473 28.1748C192.37 25.8323 192.535 23.4857 192.965 21.1807Z" fill="#94C8E3"/>
<path d="M213.817 19.396C214.265 22.1286 214.439 24.8993 214.335 27.6664C214.303 29.0552 214.185 30.4406 213.981 31.8146C213.809 33.1994 213.449 34.5543 212.912 35.842C213.121 34.488 213.253 33.1232 213.309 31.7542C213.386 30.383 213.447 29.0204 213.481 27.6492C213.576 24.8981 213.61 22.1557 213.817 19.396Z" fill="#94C8E3"/>
<path d="M208.867 20.3188C209.204 22.8915 209.337 25.4869 209.264 28.0805C209.264 29.3827 209.161 30.6677 209.014 31.9785C208.935 33.293 208.626 34.5833 208.1 35.7904C208.248 35.1633 208.314 34.5199 208.298 33.8758L208.341 31.9354L208.402 28.0632C208.479 25.4933 208.557 22.9061 208.867 20.3188Z" fill="#94C8E3"/>
<path d="M203.288 21.1807C203.708 23.4549 203.87 25.7693 203.771 28.0799C203.736 29.2364 203.621 30.3891 203.426 31.5295C203.251 32.6913 202.909 33.8215 202.408 34.8843C202.583 33.7412 202.698 32.5897 202.753 31.4346C202.822 30.2963 202.882 29.1493 202.908 27.985C203.012 25.829 203.063 23.535 203.288 21.1807Z" fill="#94C8E3"/>
<path d="M198.208 21.1807C198.531 23.4658 198.678 25.7723 198.648 28.0799C198.648 29.2355 198.596 30.3825 198.501 31.5295C198.439 32.6956 198.254 33.8518 197.949 34.9791C197.949 33.8235 197.846 32.6765 197.829 31.5295C197.811 30.3825 197.785 29.2441 197.785 28.0799C197.784 25.7736 197.925 23.4695 198.208 21.1807Z" fill="#94C8E3"/>
<path opacity="0.11" d="M203.727 296.073C263.164 296.073 311.346 295.096 311.346 293.891C311.346 292.686 263.164 291.709 203.727 291.709C144.29 291.709 96.1075 292.686 96.1075 293.891C96.1075 295.096 144.29 296.073 203.727 296.073Z" fill="#344C82"/>
<path d="M225.003 163.701C248.051 163.701 266.735 145.017 266.735 121.97C266.735 98.9217 248.051 80.2378 225.003 80.2378C201.955 80.2378 183.271 98.9217 183.271 121.97C183.271 145.017 201.955 163.701 225.003 163.701Z" fill="white"/>
<path d="M102.611 235.92C102.611 235.92 83.0512 292.261 88.9932 293.873C94.9351 295.486 137.357 259.817 137.357 259.817L102.611 235.92Z" fill="#4C649E"/>
<path d="M297.867 235.92C297.867 235.92 317.418 292.261 311.476 293.873C305.534 295.486 263.113 259.817 263.113 259.817L297.867 235.92Z" fill="#819985"/>
<path d="M200.579 45.0532C176.083 45.0566 152.138 52.3237 131.772 65.9355C111.405 79.5473 95.5328 98.8926 86.1609 121.525C76.789 144.158 74.3387 169.061 79.1197 193.086C83.9008 217.111 95.6985 239.179 113.021 256.499C130.344 273.819 152.413 285.614 176.439 290.391C200.465 295.169 225.368 292.715 247.999 283.34C270.63 273.965 289.973 258.09 303.582 237.722C317.191 217.354 324.455 193.408 324.455 168.912C324.455 152.645 321.25 136.537 315.025 121.509C308.799 106.481 299.674 92.826 288.171 81.3244C276.668 69.8229 263.012 60.6999 247.983 54.4764C232.954 48.253 216.846 45.051 200.579 45.0532ZM200.579 279.489C178.709 279.487 157.331 273.001 139.148 260.849C120.965 248.698 106.793 231.427 98.4249 211.222C90.0568 191.016 87.8683 168.783 92.1359 147.334C96.4035 125.884 106.936 106.182 122.401 90.7186C137.865 75.2549 157.568 64.7243 179.018 60.4583C200.468 56.1924 222.701 58.3827 242.906 66.7523C263.111 75.1219 280.38 89.2949 292.53 107.479C304.68 125.663 311.165 147.042 311.165 168.912C311.165 183.434 308.305 197.813 302.747 211.23C297.189 224.646 289.044 236.837 278.775 247.105C268.506 257.373 256.315 265.518 242.898 271.074C229.481 276.631 215.101 279.49 200.579 279.489Z" fill="#050C04"/>
<g style="mix-blend-mode:multiply" opacity="0.23">
<path d="M196.285 174.118H203.624L199.95 108.98L196.285 174.118Z" fill="#94C8E3"/>
</g>
<path d="M195.198 172.626H202.538L198.864 107.48L195.198 172.626Z" fill="#7DB2AC"/>
<g style="mix-blend-mode:multiply" opacity="0.23">
<path d="M196.51 172.229L202.063 177.033L255.67 109.377L196.51 172.229Z" fill="#94C8E3"/>
</g>
<path d="M195.422 170.739L200.976 175.542L254.583 107.887L195.422 170.739Z" fill="#7DB2AC"/>
<g style="mix-blend-mode:multiply" opacity="0.23">
<path d="M198.864 179.837C203.931 179.837 208.04 175.729 208.04 170.661C208.04 165.594 203.931 161.485 198.864 161.485C193.796 161.485 189.688 165.594 189.688 170.661C189.688 175.729 193.796 179.837 198.864 179.837Z" fill="#94C8E3"/>
</g>
<g style="mix-blend-mode:multiply" opacity="0.23">
<path d="M198.864 183.32C203.931 183.32 208.04 179.212 208.04 174.144C208.04 169.076 203.931 164.968 198.864 164.968C193.796 164.968 189.688 169.076 189.688 174.144C189.688 179.212 193.796 183.32 198.864 183.32Z" fill="#94C8E3"/>
</g>
<path d="M198.864 181.804C203.931 181.804 208.04 177.695 208.04 172.628C208.04 167.56 203.931 163.452 198.864 163.452C193.796 163.452 189.688 167.56 189.688 172.628C189.688 177.695 193.796 181.804 198.864 181.804Z" fill="#7DB2AC"/>
<g style="mix-blend-mode:multiply" opacity="0.23">
<path d="M194.776 175.412C195.119 176.481 195.854 177.379 196.834 177.926C197.813 178.474 198.964 178.629 200.054 178.362C202.796 177.585 204.064 173.618 202.382 171.376C201.78 170.64 200.953 170.121 200.029 169.897C199.105 169.672 198.132 169.756 197.259 170.134C196.276 170.563 195.482 171.335 195.025 172.306C194.568 173.277 194.479 174.381 194.776 175.412Z" fill="#94C8E3"/>
</g>
<path d="M200.579 64.0869C201.068 64.9046 201.412 65.8001 201.597 66.7345C201.783 67.6018 201.875 68.4865 201.873 69.3735C201.879 70.2606 201.787 71.1457 201.597 72.0124C201.41 72.9434 201.066 73.8357 200.579 74.6514C200.099 73.8296 199.756 72.9355 199.562 72.0038C199.188 70.2643 199.188 68.4653 199.562 66.7259C199.751 65.7955 200.095 64.9034 200.579 64.0869Z" fill="#94C8E3"/>
<path d="M148.179 78.0986C149.007 78.5626 149.751 79.1632 150.379 79.8752C150.972 80.5352 151.495 81.2548 151.94 82.0226C152.39 82.7907 152.755 83.6063 153.026 84.4545C153.328 85.3547 153.477 86.2993 153.466 87.2487C152.639 86.7798 151.893 86.1798 151.258 85.4722C150.663 84.8128 150.142 84.0898 149.706 83.3162C149.259 82.5492 148.895 81.7368 148.619 80.8928C148.322 79.9915 148.173 79.0477 148.179 78.0986Z" fill="#94C8E3"/>
<path d="M109.811 116.504C110.762 116.481 111.709 116.618 112.614 116.909C114.31 117.455 115.871 118.355 117.193 119.548C117.905 120.176 118.506 120.919 118.97 121.747C118.02 121.758 117.076 121.609 116.176 121.308C115.332 121.035 114.52 120.674 113.752 120.23C112.98 119.789 112.259 119.262 111.605 118.66C110.895 118.043 110.289 117.315 109.811 116.504Z" fill="#94C8E3"/>
<path d="M95.7715 168.911C96.5903 168.431 97.4815 168.087 98.4104 167.893C100.153 167.525 101.954 167.525 103.697 167.893C104.628 168.08 105.521 168.424 106.336 168.911C105.519 169.394 104.627 169.738 103.697 169.928C101.955 170.302 100.153 170.302 98.4104 169.928C97.4802 169.739 96.5883 169.395 95.7715 168.911Z" fill="#94C8E3"/>
<path d="M109.811 221.319C110.281 220.492 110.884 219.749 111.596 219.119C112.253 218.522 112.973 217.999 113.744 217.558C114.511 217.114 115.323 216.753 116.167 216.48C117.067 216.176 118.011 216.025 118.961 216.032C118.5 216.864 117.899 217.611 117.185 218.24C115.862 219.433 114.301 220.333 112.605 220.879C111.705 221.181 110.761 221.329 109.811 221.319Z" fill="#94C8E3"/>
<path d="M148.179 259.687C148.173 258.738 148.322 257.794 148.619 256.893C148.895 256.049 149.259 255.236 149.706 254.469C150.142 253.696 150.663 252.973 151.258 252.313C151.891 251.603 152.637 251.003 153.466 250.537C153.477 251.486 153.328 252.431 153.026 253.331C152.756 254.177 152.392 254.99 151.94 255.754C151.497 256.526 150.974 257.249 150.379 257.91C149.748 258.619 149.005 259.22 148.179 259.687Z" fill="#94C8E3"/>
<path d="M200.579 273.734C200.098 272.913 199.757 272.019 199.57 271.086C199.386 270.218 199.291 269.334 199.286 268.447C199.289 267.558 199.381 266.671 199.562 265.8C199.756 264.871 200.1 263.979 200.579 263.161C201.066 263.976 201.411 264.868 201.597 265.8C201.786 266.669 201.879 267.557 201.873 268.447C201.875 269.334 201.783 270.219 201.597 271.086C201.411 272.02 201.067 272.915 200.579 273.734Z" fill="#94C8E3"/>
<path d="M253.005 259.687C252.179 259.22 251.436 258.619 250.806 257.91C250.211 257.249 249.688 256.526 249.245 255.754C248.793 254.99 248.428 254.177 248.158 253.331C247.856 252.431 247.708 251.486 247.719 250.537C248.547 251.001 249.29 251.601 249.918 252.313C251.107 253.639 252.005 255.199 252.557 256.893C252.861 257.792 253.013 258.737 253.005 259.687Z" fill="#94C8E3"/>
<path d="M291.374 221.319C290.424 221.329 289.48 221.181 288.579 220.879C286.884 220.333 285.323 219.433 284 218.24C283.286 217.609 282.682 216.863 282.215 216.032C283.168 216.024 284.115 216.176 285.018 216.48C286.71 217.029 288.267 217.928 289.588 219.119C290.301 219.749 290.904 220.492 291.374 221.319Z" fill="#94C8E3"/>
<path d="M305.413 168.91C304.596 169.391 303.704 169.732 302.774 169.919C301.032 170.293 299.23 170.293 297.488 169.919C296.558 169.729 295.666 169.385 294.849 168.902C295.664 168.415 296.556 168.07 297.488 167.884C299.231 167.516 301.031 167.516 302.774 167.884C303.704 168.081 304.595 168.427 305.413 168.91Z" fill="#94C8E3"/>
<path d="M253.005 78.0986C253.013 79.0485 252.861 79.993 252.557 80.8928C252.005 82.5864 251.107 84.1461 249.918 85.4722C249.287 86.1813 248.544 86.7816 247.719 87.2487C247.708 86.2993 247.856 85.3547 248.158 84.4545C248.43 83.6063 248.794 82.7907 249.245 82.0226C249.69 81.2548 250.213 80.5352 250.806 79.8752C251.434 79.1632 252.177 78.5626 253.005 78.0986Z" fill="#94C8E3"/>
<g style="mix-blend-mode:multiply" opacity="0.23">
<path d="M200.58 64.0781C229.392 64.0744 257.067 75.3172 277.714 95.413C298.361 115.509 310.348 142.87 311.123 171.672C311.123 170.749 311.166 169.835 311.166 168.912C311.295 154.309 308.53 139.825 303.031 126.297C297.532 112.768 289.408 100.463 279.127 90.0913C268.847 79.7197 256.614 71.4871 243.134 65.8688C229.655 60.2505 215.196 57.3579 200.593 57.3579C185.989 57.3579 171.531 60.2505 158.051 65.8688C144.572 71.4871 132.339 79.7197 122.058 90.0913C111.778 100.463 103.654 112.768 98.1546 126.297C92.6556 139.825 89.8907 154.309 90.0197 168.912C90.0197 169.835 90.0197 170.749 90.0197 171.672C90.7972 142.868 102.787 115.505 123.437 95.4095C144.087 75.3137 171.766 64.0721 200.58 64.0781Z" fill="#94C8E3"/>
</g>
<path d="M194.776 173.939C195.119 175.007 195.854 175.905 196.834 176.453C197.813 177 198.964 177.156 200.054 176.888C202.796 176.112 204.064 172.145 202.382 169.903C201.78 169.166 200.953 168.647 200.029 168.423C199.105 168.199 198.132 168.282 197.259 168.661C196.276 169.09 195.482 169.861 195.025 170.832C194.568 171.803 194.479 172.907 194.776 173.939Z" fill="#EFF1F4"/>
<path d="M225.003 50.7676C233.202 52.2365 241.195 54.6801 248.814 58.0463C256.462 61.3717 263.741 65.4907 270.529 70.3355C273.892 72.7972 277.127 75.4281 280.223 78.2179C283.294 81.0365 286.202 84.0281 288.933 87.1783C294.349 93.4965 298.982 100.446 302.731 107.876C300.712 104.25 298.504 100.732 296.117 97.3374C293.754 93.937 291.191 90.68 288.441 87.5836C285.664 84.5134 282.767 81.5468 279.705 78.7785C276.614 76.0281 273.385 73.4375 270.029 71.0168C263.304 66.1847 256.11 62.0415 248.555 58.6499C244.782 56.9312 240.922 55.4113 236.99 54.0965C233.07 52.7314 229.066 51.6195 225.003 50.7676Z" fill="#94C8E3"/>
<path d="M198.709 284.602C190.38 284.646 182.077 283.693 173.975 281.765C165.852 279.884 157.949 277.156 150.397 273.624C146.641 271.803 142.982 269.788 139.436 267.587C135.902 265.379 132.501 262.966 129.25 260.36C122.771 255.122 116.954 249.116 111.925 242.474C114.579 245.689 117.4 248.764 120.376 251.684C123.322 254.597 126.434 257.336 129.699 259.886C132.985 262.404 136.374 264.784 139.893 266.966C143.427 269.115 147.071 271.079 150.811 272.847C158.301 276.383 166.128 279.157 174.173 281.127C178.195 282.127 182.265 282.921 186.368 283.507C190.454 284.133 194.576 284.499 198.709 284.602Z" fill="#94C8E3"/>
<path d="M237.56 121.884C237.927 121.789 238.313 121.789 238.681 121.884C239.055 121.991 239.398 122.186 239.681 122.453C239.949 122.721 240.167 123.033 240.328 123.376C240.503 123.696 240.655 124.027 240.785 124.368C240.518 124.119 240.273 123.847 240.052 123.557C239.848 123.279 239.626 123.014 239.388 122.764C238.868 122.313 238.236 122.009 237.56 121.884Z" fill="#CC8972"/>
<path d="M239.319 120.59C239.679 120.63 240.037 120.696 240.388 120.788C240.759 120.859 241.119 120.981 241.457 121.15C241.755 121.39 242.006 121.683 242.199 122.013C242.392 122.326 242.55 122.658 242.673 123.005C242.406 122.746 242.173 122.479 241.932 122.22C241.714 121.958 241.472 121.718 241.207 121.504C241.068 121.417 240.917 121.35 240.759 121.306C240.604 121.237 240.431 121.176 240.276 121.099C239.943 120.956 239.623 120.786 239.319 120.59Z" fill="#CC8972"/>
<path d="M241.371 119.683C241.666 119.756 241.954 119.851 242.234 119.968C242.527 120.08 242.803 120.218 243.096 120.339L243.182 120.382H243.226L243.346 120.442C243.419 120.505 243.483 120.577 243.536 120.658C243.636 120.783 243.717 120.923 243.777 121.072C243.923 121.344 244.033 121.634 244.105 121.934C243.898 121.701 243.708 121.451 243.519 121.21L243.234 120.873C243.196 120.83 243.153 120.793 243.105 120.761H243.044L242.915 120.709C242.613 120.59 242.324 120.44 242.053 120.261C241.808 120.09 241.58 119.896 241.371 119.683Z" fill="#CC8972"/>
<path d="M300.136 151.982L294.219 158.459L290.52 152.085L300.136 151.982Z" fill="white"/>
<path d="M297.169 152.352C297.169 152.352 295.047 155.801 291.925 151.929L294.823 151.067L297.169 152.352Z" fill="#233561"/>
<path d="M326.43 217.739C326.43 217.584 326.499 217.412 326.534 217.213C326.491 217.369 326.491 217.55 326.43 217.739Z" fill="#FCC858"/>
<path d="M318.315 216.946C318.315 216.946 324.456 216.498 326.939 215.955C326.939 215.955 327.483 218.464 326.517 219.361C325.551 220.258 319.557 220.629 318.816 219.835C318.074 219.042 318.315 216.946 318.315 216.946Z" fill="#F2F2F2"/>
<path d="M319.307 218.672C319.401 218.709 319.506 218.709 319.599 218.67C319.692 218.631 319.767 218.558 319.807 218.465C319.828 218.419 319.839 218.369 319.84 218.318C319.841 218.267 319.831 218.217 319.812 218.17C319.793 218.123 319.764 218.081 319.727 218.045C319.691 218.01 319.648 217.983 319.6 217.965C319.554 217.945 319.505 217.934 319.455 217.933C319.405 217.932 319.355 217.941 319.309 217.96C319.262 217.978 319.22 218.006 319.184 218.041C319.148 218.075 319.12 218.117 319.1 218.163C319.062 218.258 319.062 218.364 319.101 218.459C319.14 218.554 319.213 218.63 319.307 218.672Z" fill="#FCC858"/>
<path d="M250.745 128.601C250.745 128.601 245.761 133.948 244.045 136.414C244.045 136.414 241.552 134.69 241.673 133.111C241.794 131.533 246.701 126.393 247.977 126.488C249.253 126.583 250.745 128.601 250.745 128.601Z" fill="#F2F2F2"/>
<path d="M243.588 133.12C243.531 133.14 243.479 133.172 243.434 133.212C243.389 133.253 243.353 133.302 243.328 133.356C243.302 133.411 243.287 133.47 243.285 133.53C243.282 133.59 243.291 133.65 243.312 133.707C243.354 133.82 243.44 133.911 243.55 133.961C243.66 134.011 243.785 134.016 243.898 133.974C243.955 133.954 244.007 133.922 244.051 133.882C244.096 133.841 244.132 133.792 244.157 133.738C244.183 133.683 244.198 133.624 244.201 133.564C244.203 133.504 244.194 133.444 244.174 133.388C244.154 133.331 244.122 133.279 244.082 133.234C244.041 133.19 243.992 133.154 243.938 133.128C243.884 133.102 243.825 133.088 243.764 133.085C243.704 133.082 243.644 133.091 243.588 133.112V133.12Z" fill="#FCC858"/>
<path d="M297.28 244.544C296.832 243.88 296.418 243.199 296.004 242.518C295.59 241.836 295.211 241.138 294.814 240.439C294.064 239.042 293.313 237.637 292.623 236.205L292.805 236.386C290.666 235.246 288.59 233.99 286.587 232.626C288.844 233.512 291.052 234.52 293.201 235.644L293.313 235.696L293.382 235.826C294.115 237.231 294.797 238.671 295.469 240.138C295.789 240.862 296.116 241.586 296.418 242.328C296.72 243.07 297.013 243.76 297.28 244.544Z" fill="#0D1017"/>
<path d="M300.963 137.606C300.74 138.452 300.353 139.246 299.825 139.944C299.297 140.653 298.646 141.26 297.902 141.737C297.163 142.218 296.346 142.565 295.487 142.764C295.064 142.865 294.635 142.94 294.202 142.988C293.771 142.988 293.34 142.988 292.908 142.988C293.753 142.867 294.586 142.68 295.401 142.427C296.201 142.174 296.964 141.814 297.669 141.358C298.377 140.902 299.016 140.347 299.566 139.711C300.125 139.076 300.595 138.368 300.963 137.606Z" fill="#CC8972"/>
<path d="M292.089 134.949C291.818 135.608 291.311 136.143 290.666 136.449C290.349 136.61 290 136.701 289.644 136.714C289.289 136.727 288.934 136.664 288.605 136.527C288.936 136.505 289.264 136.459 289.588 136.389C289.887 136.31 290.176 136.201 290.451 136.061C291.044 135.765 291.595 135.39 292.089 134.949Z" fill="#EDBDA3"/>
<path d="M305.025 129.171C304.548 129.128 304.069 129.243 303.663 129.498C303.482 129.624 303.332 129.789 303.223 129.981C303.116 130.18 303.035 130.391 302.982 130.611L302.861 130.369C303.088 130.46 303.302 130.579 303.499 130.723C303.622 130.808 303.721 130.923 303.786 131.058C303.851 131.192 303.88 131.341 303.87 131.49C303.836 131.641 303.754 131.777 303.637 131.878L303.378 132.111C303.295 132.19 303.205 132.262 303.111 132.327C302.998 132.416 302.869 132.483 302.731 132.525L302.869 132.387C302.829 132.619 302.839 132.857 302.899 133.084C302.958 133.312 303.066 133.524 303.214 133.707C302.997 133.573 302.828 133.374 302.731 133.138C302.627 132.892 302.574 132.628 302.576 132.361L302.714 132.232C302.714 132.232 302.844 132.129 302.895 132.068L303.128 131.835C303.283 131.68 303.473 131.508 303.464 131.413C303.456 131.318 303.387 131.18 303.232 131.059C303.067 130.94 302.891 130.839 302.706 130.757C302.662 130.738 302.627 130.704 302.606 130.662C302.586 130.619 302.581 130.57 302.593 130.524C302.664 130.265 302.774 130.017 302.921 129.791C303.073 129.561 303.285 129.376 303.534 129.257C303.763 129.142 304.014 129.075 304.271 129.06C304.527 129.045 304.784 129.083 305.025 129.171Z" fill="#CC8972"/>
<path d="M291.994 146.23L291.347 148.49L294.797 151.077C294.797 151.077 292.054 152.293 290.795 153.061C289.82 151.816 289.294 150.278 289.303 148.697C289.524 148.102 289.883 147.568 290.351 147.139C290.819 146.71 291.382 146.399 291.994 146.23Z" fill="white"/>
<path d="M304.007 118.77C304.007 118.77 304.007 117.261 306.12 115.631C306.12 115.631 307.25 117.486 304.007 118.77Z" fill="#233561"/>
<path d="M303.973 118.554C303.973 118.554 305.051 117.494 307.698 117.882C307.698 117.882 307.146 119.986 303.973 118.554Z" fill="#233561"/>
<path d="M288.752 128.059C288.655 127.831 288.48 127.645 288.259 127.533C288.039 127.421 287.785 127.39 287.544 127.447" stroke="#F2F2F2" stroke-width="0.37" stroke-miterlimit="10"/>
<path d="M293.943 133.733C293.943 133.733 295.771 135.855 295.668 137.769C295.651 137.769 293.719 135.734 293.943 133.733Z" fill="#233561"/>
<path d="M287.544 134.708C287.544 134.708 289.993 132.034 291.856 133.112C291.839 133.112 289.45 136.07 287.544 134.708Z" fill="#233561"/>
<path d="M314.417 178.071C313.691 176.533 313.077 174.945 312.58 173.319C312.048 171.704 311.635 170.053 311.347 168.377C312.079 169.91 312.696 171.496 313.192 173.121C313.718 174.739 314.127 176.394 314.417 178.071Z" fill="#B58C40"/>
<path d="M279.757 157.181C279.516 158.138 279.257 159.035 278.99 159.949C278.735 160.875 278.427 161.785 278.067 162.675C277.98 161.696 278.083 160.709 278.369 159.768C278.625 158.81 279.1 157.924 279.757 157.181Z" fill="#B58C40"/>
<path d="M302.723 164.341C302.067 166.669 301.274 168.963 300.42 171.24C299.566 173.517 298.609 175.742 297.6 177.958C296.568 180.162 295.384 182.292 294.056 184.331C293.382 185.353 292.617 186.311 291.77 187.195C290.965 188.142 289.837 188.756 288.605 188.919C289.782 188.646 290.822 187.961 291.537 186.988C292.322 186.079 293.026 185.103 293.642 184.073C294.888 182.012 296.013 179.881 297.014 177.691C298.074 175.518 299.014 173.293 299.963 171.068C300.912 168.843 301.809 166.609 302.723 164.341Z" fill="#B58C40"/>
<path d="M282.215 175.551C282.603 178.138 282.991 180.726 283.422 183.313C283.853 185.9 284.285 188.487 284.862 190.997C285.372 193.549 286.022 196.071 286.811 198.552C287.199 199.791 287.674 201.002 288.234 202.174C288.759 203.364 289.539 204.424 290.52 205.278C289.434 204.513 288.546 203.499 287.933 202.32C287.302 201.162 286.763 199.957 286.32 198.715C285.451 196.219 284.754 193.666 284.233 191.075C283.715 188.487 283.267 185.9 282.931 183.313C282.594 180.726 282.336 178.138 282.215 175.551Z" fill="#B58C40"/>
<path d="M309.345 191.626C308.785 191.773 308.233 191.937 307.672 192.058C307.112 192.178 306.56 192.29 305.999 192.411L304.344 192.722C304.086 192.77 303.835 192.845 303.593 192.946C303.593 192.946 303.55 192.946 303.541 192.946C303.533 192.946 303.585 193.015 303.636 193.058L304.007 193.265C303.859 193.269 303.711 193.252 303.567 193.213C303.473 193.191 303.389 193.14 303.326 193.067C303.294 193.007 303.282 192.939 303.292 192.873C303.301 192.806 303.331 192.744 303.378 192.696C303.619 192.489 303.897 192.328 304.197 192.221C304.756 192.014 305.334 191.858 305.922 191.756C307.048 191.523 308.205 191.479 309.345 191.626Z" fill="#B58C40"/>
<path d="M308.656 192.455C308.185 193.03 307.666 193.564 307.104 194.05C306.841 194.269 306.599 194.512 306.379 194.774C306.285 194.867 306.224 194.988 306.207 195.119C306.207 195.24 306.345 195.369 306.5 195.482C306.389 195.501 306.276 195.488 306.172 195.446C306.068 195.403 305.979 195.332 305.914 195.24C305.855 195.13 305.825 195.007 305.825 194.882C305.825 194.758 305.855 194.635 305.914 194.524C306.091 194.161 306.337 193.836 306.638 193.567C307.213 193.041 307.904 192.66 308.656 192.455Z" fill="#B58C40"/>
<g style="mix-blend-mode:multiply" opacity="0.23">
<path d="M91.7271 116.908C90.3731 116.986 89.1398 117.037 88.0618 117.072C81.2132 131.963 77.4019 148.071 76.8506 164.452C77.713 165.47 78.1959 166.082 78.1959 166.082C84.0893 158.53 88.0981 149.681 89.8901 140.271C92.1669 127.748 100.48 130.784 107.492 130.948C119.203 131.276 121.713 127.102 113.365 118.969C104.853 110.707 102.516 116.27 91.7271 116.908Z" fill="#4C649E"/>
</g>
<path d="M78.1611 161.219C78.1611 161.219 65.2251 146.334 67.9589 139.978C70.6927 133.622 68.2004 125.946 73.6249 118.538C79.0494 111.13 80.9381 112.708 91.7354 112.044C102.533 111.38 104.827 105.809 113.339 114.105C121.687 122.238 119.177 126.412 107.466 126.093C100.454 125.895 92.1407 122.885 89.8639 135.407C88.0694 144.818 84.0576 153.667 78.1611 161.219Z" fill="#A6C98B"/>
<path d="M61.448 152.342C65.2512 150.178 62.0258 139.613 55.8424 133.999C51.5303 130.127 47.2183 133.395 40.9917 128.359C36.6107 124.797 36.8522 121.589 33.3767 120.83C29.2803 119.968 27.6935 124.142 21.1651 125.461C14.8782 126.729 13.3345 123.435 9.44501 125.039C2.31293 127.962 -2.74076 143.235 1.62301 147.91C4.28784 150.764 10.8335 142.149 17.9311 145.098C21.4669 146.564 21.3807 149.22 24.9079 150.117C29.8236 151.402 32.4108 146.745 37.5853 145.866C47.6236 144.175 57.1877 154.757 61.448 152.342Z" fill="#A6C98B"/>
<path d="M87.0095 223.484C86.0264 218.672 85.0174 213.903 83.8273 209.185C82.6372 204.468 81.4902 199.699 80.1793 194.973C77.671 185.523 74.557 176.245 70.8567 167.195C69.0555 162.671 66.7774 158.352 64.061 154.311L61.9222 151.352C61.1805 150.387 60.3613 149.481 59.5851 148.55C59.1884 148.093 58.8176 147.601 58.395 147.17L57.1186 145.868C56.3013 144.975 55.4377 144.126 54.5314 143.324C50.939 140.002 46.8944 137.206 42.5181 135.019C38.1765 132.761 33.465 131.3 28.6075 130.707C33.5078 131.145 38.285 132.484 42.6992 134.656C47.1436 136.774 51.2664 139.509 54.9454 142.78C55.8841 143.595 56.7794 144.459 57.6274 145.367L58.9297 146.678C59.3695 147.109 59.7403 147.601 60.1457 148.067C60.9391 149.007 61.7756 149.921 62.5259 150.887L64.7078 153.871C67.4612 157.946 69.774 162.303 71.607 166.867C73.5043 171.403 75.1687 176.017 76.6607 180.666C78.1527 185.314 79.5584 190.031 80.7744 194.783C83.2926 204.244 85.3882 213.825 87.0095 223.484Z" fill="#40635B"/>
<path d="M89.0794 223.209C87.4581 214.964 85.9144 206.702 84.3793 198.44L79.8431 173.638C78.4287 165.35 76.9713 157.071 75.8502 148.731C75.2505 144.563 74.8705 140.366 74.7118 136.157C74.6381 134.043 74.8118 131.927 75.2292 129.853C75.4697 128.818 75.8682 127.826 76.4107 126.912C76.9719 126.017 77.6976 125.236 78.5495 124.61C77.7263 125.261 77.0379 126.067 76.5228 126.981C76.021 127.896 75.6605 128.882 75.4534 129.905C75.1057 131.967 74.9986 134.062 75.1344 136.149C75.3767 140.335 75.8344 144.506 76.5056 148.645C77.7561 156.941 79.2135 165.22 80.6882 173.491L85.0003 198.328C86.4319 206.599 87.8117 214.895 89.0794 223.209Z" fill="#40635B"/>
<path d="M77.8163 192.876C77.8163 192.876 79.0841 176.49 74.0045 173.713C68.925 170.936 66.562 164.666 59.1453 162.614C51.7286 160.561 51.3837 162.614 43.9411 167.788C36.4986 172.963 32.1434 170.514 30.8843 180.354C29.6511 190.004 33.4715 191.435 40.9486 185.14C45.4331 181.371 49.2966 175.093 57.2911 182.096C63.1892 187.254 70.2216 190.948 77.8163 192.876Z" fill="#A6C98B"/>
<path d="M84.8538 223.741L84.2243 220.239L83.543 216.738L82.8358 213.245L82.051 209.796C81.0028 205.175 79.7132 200.612 78.1874 196.127C76.7128 191.631 74.8276 187.281 72.5559 183.13C72.0212 182.078 71.3658 181.095 70.7363 180.095C70.1067 179.094 69.3823 178.163 68.6924 177.206L68.1663 176.49L67.5799 175.826L66.407 174.489C66.0082 174.051 65.5849 173.637 65.1393 173.247L63.837 172.022C64.7512 172.79 65.7171 173.497 66.5709 174.325L67.8213 175.61L68.4509 176.248L69.0201 176.938C69.7531 177.878 70.5552 178.775 71.1933 179.784C71.8315 180.793 72.5559 181.75 73.1337 182.803C75.515 186.947 77.4794 191.318 78.9981 195.851C80.5097 200.371 81.7452 204.979 82.6978 209.649C83.652 214.307 84.3716 219.01 84.8538 223.741Z" fill="#40635B"/>
<path opacity="0.11" d="M88.0014 330.413C129.263 330.413 162.711 325.312 162.711 319.02C162.711 312.728 129.263 307.628 88.0014 307.628C46.7402 307.628 13.2914 312.728 13.2914 319.02C13.2914 325.312 46.7402 330.413 88.0014 330.413Z" fill="#344C82"/>
<path d="M23.4246 201.458L13.2914 316.528H37.8526L23.4246 201.458Z" fill="#ABBAC2"/>
<path d="M24.9598 223.31C24.9598 223.31 28.5906 320.942 34.6274 324.426C40.6642 327.91 146.481 331.878 170.24 310.766C170.24 310.766 161.228 297.054 159.029 285.127C156.83 273.2 151.811 214.479 151.811 214.479L24.9598 223.31Z" fill="white"/>
<path d="M67.8899 252.597L48.4513 255.236L47.0024 234.65L67.2258 233.227L67.8899 252.597Z" stroke="#CCCCCC" stroke-width="0.5" stroke-miterlimit="10"/>
<path d="M93.8913 252.047L73.668 253.47L72.1243 231.47L92.4425 231.461L93.8913 252.047Z" stroke="#CCCCCC" stroke-width="0.5" stroke-miterlimit="10"/>
<path d="M118.324 248.915L98.8937 251.7L97.4448 231.115L117.668 229.692L118.324 248.915Z" stroke="#CCCCCC" stroke-width="0.5" stroke-miterlimit="10"/>
<path d="M70.667 282.29L50.3746 282.661L48.9258 262.075L69.1492 260.661L70.667 282.29Z" stroke="#CCCCCC" stroke-width="0.5" stroke-miterlimit="10"/>
<path d="M95.8148 279.479L75.6949 282.394L74.1512 260.308L94.297 257.841L95.8148 279.479Z" stroke="#CCCCCC" stroke-width="0.5" stroke-miterlimit="10"/>
<path d="M121.135 279.204L100.817 279.126L99.368 258.541L119.591 257.126L121.135 279.204Z" stroke="#CCCCCC" stroke-width="0.5" stroke-miterlimit="10"/>
<path d="M72.5123 308.681L52.2975 310.095L50.8055 288.819L71.072 288.086L72.5123 308.681Z" stroke="#CCCCCC" stroke-width="0.5" stroke-miterlimit="10"/>
<path d="M142.721 228.658L122.454 230.076L123.899 250.713L144.165 249.295L142.721 228.658Z" stroke="#CCCCCC" stroke-width="0.501224" stroke-miterlimit="10"/>
<path d="M144.219 255.402L124.002 256.819L125.446 277.406L145.662 275.988L144.219 255.402Z" stroke="#CCCCCC" stroke-width="0.5" stroke-miterlimit="10"/>
<path d="M147.594 303.411L127.379 304.825L126.672 282.894L146.154 282.825L147.594 303.411Z" stroke="#CCCCCC" stroke-width="0.5" stroke-miterlimit="10"/>
<path d="M97.7381 306.904L76.3936 306.343L76.0745 287.741L96.2892 286.318L97.7381 306.904Z" stroke="#CCCCCC" stroke-width="0.5" stroke-miterlimit="10"/>
<path d="M122.955 305.136L102.74 306.559L101.291 285.973L121.463 283.86L122.955 305.136Z" stroke="#CCCCCC" stroke-width="0.5" stroke-miterlimit="10"/>
<path d="M150.293 192.635L23.4247 201.423L24.9598 223.276L151.828 214.445L150.293 192.635ZM47.1408 214.41C46.4242 214.462 45.7085 214.299 45.0843 213.943C44.4602 213.588 43.9556 213.055 43.6344 212.412C43.3132 211.769 43.1899 211.046 43.2801 210.333C43.3703 209.62 43.6699 208.95 44.141 208.408C44.6122 207.866 45.2336 207.475 45.9267 207.286C46.6198 207.097 47.3534 207.118 48.0347 207.346C48.716 207.574 49.3143 207.999 49.7539 208.567C50.1934 209.136 50.4546 209.822 50.5042 210.538C50.5382 211.014 50.4781 211.491 50.3274 211.943C50.1767 212.395 49.9383 212.813 49.6259 213.172C49.3135 213.532 48.9331 213.826 48.5067 214.039C48.0803 214.251 47.6161 214.378 47.1408 214.41ZM68.7009 212.893C67.9843 212.944 67.2686 212.781 66.6444 212.426C66.0203 212.07 65.5157 211.537 65.1945 210.894C64.8733 210.252 64.75 209.528 64.8402 208.815C64.9304 208.103 65.23 207.433 65.7011 206.89C66.1723 206.348 66.7937 205.957 67.4868 205.768C68.1799 205.579 68.9135 205.6 69.5948 205.828C70.2761 206.056 70.8744 206.481 71.314 207.05C71.7535 207.618 72.0147 208.304 72.0643 209.02C72.1357 209.974 71.8263 210.917 71.204 211.642C70.5817 212.368 69.6971 212.818 68.744 212.893H68.7009ZM90.3041 211.383C89.5875 211.435 88.8718 211.272 88.2477 210.916C87.6235 210.561 87.1189 210.028 86.7977 209.385C86.4765 208.742 86.3532 208.019 86.4434 207.306C86.5336 206.593 86.8332 205.923 87.3044 205.381C87.7755 204.839 88.3969 204.448 89.09 204.259C89.7831 204.07 90.5168 204.091 91.198 204.319C91.8793 204.547 92.4776 204.972 92.9172 205.54C93.3568 206.109 93.6179 206.795 93.6675 207.511C93.7343 208.464 93.4233 209.404 92.8019 210.129C92.1805 210.853 91.2986 211.304 90.3472 211.383H90.3041ZM111.864 209.866C111.148 209.917 110.432 209.754 109.808 209.398C109.184 209.043 108.679 208.51 108.358 207.867C108.037 207.225 107.913 206.501 108.004 205.788C108.094 205.076 108.393 204.406 108.864 203.863C109.336 203.321 109.957 202.93 110.65 202.741C111.343 202.552 112.077 202.573 112.758 202.801C113.439 203.029 114.038 203.454 114.477 204.023C114.917 204.591 115.178 205.277 115.228 205.993C115.297 206.939 114.993 207.875 114.38 208.599C113.767 209.323 112.895 209.778 111.95 209.866H111.864ZM133.554 208.322C132.837 208.373 132.121 208.211 131.496 207.855C130.872 207.499 130.367 206.965 130.046 206.322C129.725 205.679 129.602 204.955 129.693 204.242C129.784 203.529 130.084 202.859 130.556 202.317C131.028 201.774 131.65 201.384 132.344 201.196C133.038 201.008 133.772 201.03 134.453 201.26C135.134 201.489 135.732 201.915 136.171 202.485C136.609 203.054 136.869 203.741 136.917 204.458C136.951 204.933 136.891 205.41 136.74 205.861C136.589 206.313 136.351 206.73 136.038 207.089C135.726 207.448 135.345 207.742 134.919 207.953C134.493 208.165 134.029 208.29 133.554 208.322Z" fill="#7FC991"/>
<path d="M87.1042 237.807C86.6964 238.779 86.1907 239.706 85.595 240.575C85.0139 241.431 84.3833 242.252 83.7063 243.033C83.0313 243.813 82.3083 244.551 81.5417 245.241C80.7532 245.955 79.8952 246.587 78.9803 247.13C79.3865 246.155 79.8923 245.224 80.4896 244.353C81.0671 243.5 81.6949 242.682 82.3696 241.904C83.0493 241.13 83.772 240.396 84.5342 239.704C85.3234 238.985 86.1846 238.349 87.1042 237.807Z" fill="#4D4D4D"/>
<path d="M87.7165 246.509C86.7422 246.101 85.8118 245.595 84.9396 245C84.0845 244.422 83.2665 243.791 82.4904 243.111C81.7125 242.437 80.9752 241.717 80.2826 240.955C79.5691 240.178 78.939 239.328 78.4026 238.419C79.3759 238.824 80.3038 239.33 81.1709 239.929C82.0275 240.504 82.8457 241.135 83.6201 241.817C84.4001 242.489 85.1374 243.21 85.8279 243.973C86.5402 244.754 87.1729 245.603 87.7165 246.509Z" fill="#4D4D4D"/>
<path d="M116.219 290.553C115.811 291.524 115.306 292.452 114.71 293.321C114.134 294.18 113.504 295.001 112.821 295.779C112.147 296.557 111.427 297.294 110.665 297.987C109.888 298.7 109.038 299.33 108.13 299.867C108.536 298.892 109.042 297.961 109.639 297.09C110.217 296.235 110.848 295.417 111.528 294.641C112.202 293.865 112.922 293.131 113.684 292.441C114.464 291.729 115.313 291.096 116.219 290.553Z" fill="#4D4D4D"/>
<path d="M116.831 299.253C115.858 298.849 114.93 298.343 114.063 297.744C113.204 297.169 112.383 296.538 111.605 295.856C110.827 295.181 110.09 294.461 109.397 293.7C108.684 292.922 108.054 292.073 107.517 291.164C108.492 291.57 109.423 292.076 110.294 292.673C111.149 293.251 111.967 293.882 112.744 294.562C113.519 295.236 114.253 295.956 114.943 296.718C115.655 297.498 116.288 298.348 116.831 299.253Z" fill="#4D4D4D"/>
<path d="M63.8107 267.01C63.4001 267.982 62.8915 268.91 62.2928 269.779C61.1374 271.488 59.7793 273.052 58.2481 274.436C57.4658 275.153 56.6102 275.786 55.6954 276.324C56.1013 275.349 56.6071 274.418 57.2046 273.547C57.7969 272.689 58.4451 271.871 59.1451 271.098C59.8201 270.318 60.5431 269.581 61.3097 268.89C62.076 268.179 62.9142 267.549 63.8107 267.01Z" fill="#94C8E3"/>
<path d="M64.4148 275.712C63.4413 275.304 62.5134 274.796 61.6465 274.194C60.792 273.619 59.974 272.991 59.1972 272.314C58.4151 271.641 57.6776 270.918 56.9895 270.149C56.2732 269.372 55.6402 268.523 55.1008 267.614C56.0771 268.021 57.0078 268.53 57.8778 269.132C59.5876 270.287 61.1513 271.645 62.5348 273.176C63.2483 273.953 63.8784 274.803 64.4148 275.712Z" fill="#94C8E3"/>
<path d="M150.198 316.528C151.396 315.606 152.518 314.614 153.596 313.605C154.665 312.583 155.667 311.494 156.597 310.345C157.519 309.198 158.327 307.965 159.012 306.662C159.683 305.336 160.204 303.939 160.564 302.497C160.527 304.026 160.208 305.534 159.624 306.947C159.02 308.361 158.228 309.687 157.269 310.888C155.359 313.269 152.944 315.195 150.198 316.528Z" fill="#CCCCCC"/>
<path d="M28.5562 226.434L29.2633 238.094L30.0222 249.719C30.5656 257.481 31.1261 265.242 31.8592 273.004C32.5922 280.766 33.377 288.527 34.4464 296.194C34.9983 300.04 35.6365 303.878 36.4816 307.673C36.6714 308.621 36.9042 309.57 37.1457 310.501C37.3872 311.433 37.6718 312.373 37.9477 313.304C38.0771 313.77 38.2668 314.218 38.4393 314.675C38.6118 315.132 38.7498 315.598 38.974 316.029L39.6122 317.331L40.4315 318.539C39.2359 316.985 38.3223 315.234 37.7321 313.364C37.4217 312.433 37.0853 311.519 36.8697 310.579C36.6541 309.639 36.3264 308.699 36.1022 307.75C35.1708 303.964 34.4636 300.126 33.8254 296.28C32.5922 288.579 31.7643 280.826 31.014 273.064C30.2637 265.303 29.7808 257.541 29.3841 249.779C28.9874 242.018 28.651 234.196 28.5562 226.434Z" fill="#CCCCCC"/>
<path d="M24.9598 223.311L29.8755 222.966L28.556 203.044L23.4247 201.458L24.9598 223.311Z" fill="#235C69"/>
<path d="M34.4978 200.681C35.1933 199.2 36.0932 197.823 37.1713 196.593C38.2608 195.294 39.6324 194.262 41.1814 193.574C42.007 193.22 42.8945 193.032 43.7928 193.022C44.6911 193.012 45.5827 193.179 46.4162 193.514C48.0183 194.209 49.4272 195.283 50.5213 196.644C51.6889 198.005 52.4007 199.697 52.5565 201.483C52.6643 203.245 52.2568 205.001 51.3837 206.536C50.5451 208.005 49.4188 209.29 48.072 210.314C46.7724 211.339 45.2518 212.048 43.6307 212.383C45.0712 211.71 46.3775 210.781 47.4856 209.641C48.5779 208.552 49.4736 207.283 50.1332 205.889C50.7752 204.566 51.0464 203.094 50.918 201.629C50.7471 200.184 50.1462 198.823 49.1932 197.722C48.2807 196.557 47.1161 195.614 45.7867 194.963C44.4623 194.378 42.9671 194.311 41.5954 194.773C40.16 195.282 38.8428 196.077 37.7232 197.11C36.5303 198.188 35.4496 199.385 34.4978 200.681Z" fill="#4D4D4D"/>
<path d="M56.2219 198.723C56.9155 197.245 57.8125 195.872 58.8867 194.644C59.9771 193.343 61.3521 192.31 62.9056 191.625C63.7284 191.267 64.6144 191.076 65.5117 191.065C66.409 191.053 67.2997 191.22 68.1317 191.556C69.746 192.247 71.165 193.325 72.2626 194.695C73.43 196.052 74.1393 197.742 74.2893 199.525C74.3923 201.289 73.9788 203.045 73.0992 204.578C72.2626 206.049 71.1359 207.334 69.7875 208.356C68.4871 209.38 66.9668 210.088 65.3462 210.426C68.1813 209.06 70.4703 206.774 71.8401 203.94C72.4878 202.616 72.7621 201.14 72.6335 199.671C72.453 198.229 71.8533 196.87 70.9087 195.765C69.9776 194.6 68.7993 193.658 67.459 193.005C66.1345 192.421 64.6396 192.354 63.2678 192.815C61.8215 193.338 60.4956 194.148 59.3697 195.196C58.2035 196.261 57.1488 197.443 56.2219 198.723Z" fill="#4D4D4D"/>
<path d="M78.1183 197.732C78.7457 196.366 79.5614 195.094 80.5416 193.955C81.5423 192.753 82.805 191.798 84.2327 191.161C84.9925 190.84 85.8057 190.664 86.6302 190.643C87.4673 190.64 88.2978 190.792 89.0794 191.092C90.5665 191.729 91.8751 192.721 92.8913 193.981C93.9769 195.239 94.6352 196.809 94.7713 198.465C94.8631 200.103 94.4701 201.732 93.6416 203.148C92.8664 204.497 91.8212 205.671 90.5714 206.598C89.3735 207.539 87.9697 208.183 86.475 208.478C87.7903 207.832 88.9792 206.956 89.985 205.89C90.9796 204.889 91.791 203.722 92.3824 202.441C92.9666 201.232 93.2139 199.889 93.0982 198.551C92.9436 197.244 92.4066 196.011 91.5545 195.007C90.7181 193.969 89.6642 193.127 88.4671 192.54C87.2668 192.008 85.9113 191.94 84.6639 192.351C83.34 192.825 82.1235 193.558 81.085 194.507C79.9915 195.481 78.9978 196.561 78.1183 197.732Z" fill="#4D4D4D"/>
<path d="M99.54 195.827C100.161 194.467 100.975 193.204 101.955 192.075C102.946 190.876 104.2 189.923 105.62 189.289C106.377 188.97 107.187 188.794 108.009 188.772C108.843 188.769 109.671 188.921 110.449 189.22C111.933 189.852 113.237 190.842 114.244 192.101C115.325 193.348 115.981 194.906 116.115 196.551C116.21 198.176 115.823 199.793 115.003 201.199C114.235 202.548 113.195 203.723 111.95 204.649C110.755 205.581 109.358 206.219 107.871 206.512C109.177 205.882 110.36 205.023 111.364 203.976C112.356 202.975 113.165 201.808 113.752 200.527C114.33 199.325 114.574 197.991 114.46 196.663C114.304 195.362 113.77 194.136 112.925 193.136C112.099 192.082 111.047 191.227 109.846 190.635C108.651 190.102 107.301 190.035 106.06 190.445C104.744 190.916 103.535 191.646 102.507 192.592C101.41 193.566 100.415 194.65 99.54 195.827Z" fill="#4D4D4D"/>
<path d="M122.247 194.091C122.849 192.753 123.642 191.51 124.602 190.4C125.577 189.224 126.811 188.288 128.206 187.666C128.947 187.352 129.74 187.18 130.544 187.157C131.363 187.155 132.176 187.305 132.941 187.597C134.396 188.217 135.675 189.185 136.667 190.417C137.726 191.647 138.369 193.181 138.504 194.798C138.597 196.393 138.219 197.979 137.417 199.36C136.656 200.679 135.635 201.829 134.416 202.741C133.245 203.656 131.873 204.28 130.414 204.561C131.704 203.944 132.873 203.1 133.864 202.068C134.829 201.097 135.617 199.965 136.192 198.722C136.759 197.548 136.997 196.243 136.882 194.945C136.731 193.673 136.209 192.473 135.382 191.495C134.573 190.463 133.545 189.623 132.372 189.037C131.206 188.525 129.891 188.46 128.681 188.856C127.389 189.316 126.202 190.029 125.188 190.952C124.103 191.895 123.117 192.947 122.247 194.091Z" fill="#4D4D4D"/>
<path d="M79.6102 268.974C79.5194 271.155 80.1432 273.305 81.3868 275.097C81.9639 275.98 82.7344 276.72 83.6399 277.261C84.5454 277.802 85.562 278.13 86.6129 278.219C87.6572 278.218 88.6904 278.005 89.6506 277.595C90.6109 277.184 91.4784 276.584 92.2013 275.831C93.7296 274.385 94.6384 272.404 94.7368 270.303C94.7283 269.266 94.4985 268.244 94.0627 267.304C93.6269 266.364 92.9952 265.528 92.2099 264.852C91.4765 264.117 90.5815 263.564 89.5963 263.236C88.6111 262.908 87.5629 262.815 86.5353 262.963C85.5142 263.215 84.5715 263.717 83.7919 264.423C83.0122 265.129 82.4199 266.017 82.0681 267.008C81.2679 269.039 81.2679 271.298 82.0681 273.33C81.109 271.3 80.9791 268.977 81.7058 266.853C82.056 265.764 82.6712 264.78 83.4961 263.988C84.3211 263.196 85.3299 262.622 86.4318 262.317C87.5765 262.045 88.7754 262.114 89.8814 262.515C90.9625 262.892 91.9588 263.478 92.8136 264.24C93.6917 264.985 94.4006 265.909 94.8929 266.95C95.3851 267.991 95.6495 269.125 95.6682 270.277C95.5291 272.581 94.5067 274.744 92.8136 276.313C92.0148 277.136 91.0527 277.781 89.9892 278.209C88.9257 278.637 87.7844 278.837 86.6388 278.797C85.5063 278.669 84.4183 278.283 83.4584 277.669C82.4986 277.054 81.6925 276.228 81.1022 275.253C79.9151 273.386 79.3897 271.175 79.6102 268.974Z" fill="#FCC858"/>
<path d="M137.115 231.245C134.954 230.945 132.754 231.363 130.854 232.435C129.923 232.929 129.116 233.628 128.495 234.48C127.873 235.332 127.453 236.313 127.267 237.351C127.171 238.39 127.285 239.439 127.604 240.433C127.922 241.427 128.438 242.347 129.121 243.138C130.422 244.79 132.308 245.88 134.39 246.182C135.423 246.268 136.462 246.133 137.439 245.787C138.416 245.441 139.308 244.89 140.056 244.172C140.856 243.508 141.49 242.667 141.908 241.715C142.326 240.762 142.515 239.726 142.462 238.688C142.304 237.648 141.892 236.664 141.261 235.823C140.631 234.982 139.802 234.31 138.849 233.867C136.903 232.875 134.655 232.653 132.553 233.246C134.661 232.481 136.984 232.568 139.03 233.487C140.082 233.935 141.007 234.638 141.721 235.532C142.434 236.426 142.914 237.484 143.118 238.61C143.272 239.766 143.093 240.942 142.6 241.999C142.116 243.038 141.433 243.973 140.591 244.75C139.765 245.558 138.776 246.179 137.69 246.573C136.604 246.968 135.447 247.125 134.295 247.036C131.998 246.691 129.924 245.47 128.508 243.629C127.765 242.756 127.212 241.738 126.885 240.639C126.559 239.54 126.465 238.385 126.611 237.247C126.845 236.133 127.332 235.087 128.033 234.19C128.734 233.293 129.631 232.569 130.656 232.073C132.652 231.07 134.931 230.778 137.115 231.245Z" fill="#FCC858"/>
<path d="M84.2672 270.538C85.2797 271.21 86.2476 271.948 87.1649 272.745L86.5957 272.806C86.9407 272.254 87.3115 271.728 87.6823 271.202C88.0532 270.675 88.4499 270.167 88.8725 269.675C89.2788 269.171 89.7136 268.69 90.1747 268.235C90.6191 267.752 91.1337 267.339 91.7011 267.01C91.2786 267.502 90.9508 268.045 90.58 268.571L89.4934 270.149C88.7603 271.193 88.0014 272.236 87.2166 273.245L86.932 273.608L86.6388 273.297C85.7895 272.429 84.9973 271.508 84.2672 270.538Z" fill="#FCC858"/>
<g style="mix-blend-mode:multiply" opacity="0.23">
<path d="M252.756 71.3906C255.015 72.6037 257.226 73.8916 259.387 75.2542C264.095 73.3585 268.626 71.0497 272.927 68.3549C262.855 61.0871 251.742 55.3827 239.966 51.4346C244.563 58.9461 249.452 66.6732 252.756 71.3906Z" fill="#4C649E"/>
</g>
<path d="M235.412 31.9777C235.412 31.9777 262.224 77.2539 264.915 77.9007C267.606 78.5475 299.636 63.0156 301.024 49.1912C301.024 49.1912 294.772 44.2324 290.986 38.9804C287.2 33.7283 270.236 6.97656 270.236 6.97656L235.412 31.9777Z" fill="white"/>
<path d="M296.677 55.1923C296.75 53.8014 296.735 52.4074 296.634 51.0183C296.591 50.337 296.505 49.6557 296.393 48.9744C296.281 48.2931 296.134 47.6204 296.013 46.896C296.463 47.4718 296.813 48.1189 297.048 48.8105C297.292 49.5003 297.443 50.2196 297.497 50.9493C297.554 51.6784 297.517 52.4119 297.384 53.1312C297.27 53.8542 297.031 54.5517 296.677 55.1923Z" fill="#ABBAC2"/>
<path d="M244.2 35.3504L247.365 33.1512L250.547 30.9952L256.92 26.6832C259.05 25.2602 261.155 23.7941 263.25 22.3712C265.346 20.9482 267.424 19.4045 269.391 17.7573C268.951 18.223 268.528 18.6887 268.054 19.1458L266.631 20.4567C265.648 21.3191 264.665 22.1125 263.647 22.9059C261.629 24.5013 259.525 25.9933 257.403 27.4335C255.282 28.8737 253.091 30.2622 250.909 31.5817C248.727 32.9011 246.485 34.1689 244.2 35.3504Z" fill="#ABBAC2"/>
<path d="M247.822 40.1546L250.987 37.9554L254.169 35.7994L260.542 31.4874C262.673 30.0644 264.768 28.5983 266.873 27.1754C268.977 25.7524 271.047 24.2087 273.013 22.5615C272.573 23.0272 272.15 23.4929 271.667 23.9414L270.253 25.2609C269.27 26.1233 268.287 26.9167 267.269 27.7101C265.251 29.3055 263.147 30.7889 261.025 32.2377C258.904 33.6865 256.713 35.0664 254.523 36.3859C252.332 37.7053 250.107 38.9472 247.822 40.1546Z" fill="#ABBAC2"/>
<path d="M251.461 44.9046L254.626 42.7054L257.809 40.5494L264.173 36.2374C266.312 34.8144 268.408 33.3483 270.512 31.9254C272.616 30.5024 274.686 28.9587 276.652 27.3115C276.212 27.7772 275.79 28.2429 275.307 28.6914L273.884 29.985C272.901 30.8474 271.909 31.6408 270.9 32.4342C268.873 34.0297 266.778 35.513 264.648 36.9618C262.517 38.4107 260.336 39.7905 258.154 41.1014C255.972 42.4122 253.73 43.7231 251.461 44.9046Z" fill="#ABBAC2"/>
<path d="M255.058 49.6813L258.223 47.4821L261.414 45.3261L267.779 41.0141C269.909 39.5911 272.013 38.125 274.117 36.7021C276.221 35.2791 278.283 33.7354 280.249 32.0796C279.809 32.5453 279.387 33.0196 278.912 33.4681L277.498 34.7875C276.515 35.6499 275.523 36.4434 274.514 37.2368C272.487 38.8236 270.392 40.3155 268.262 41.7558C266.131 43.196 263.949 44.5931 261.768 45.9039C259.586 47.2148 257.343 48.4998 255.058 49.6813Z" fill="#ABBAC2"/>
<path d="M258.68 54.4584L261.81 52.2248L264.992 50.0688L271.366 45.7568C273.496 44.3338 275.6 42.8677 277.696 41.4448C279.791 40.0218 281.87 38.4781 283.836 36.8223C283.396 37.288 282.974 37.7623 282.499 38.2107L281.076 39.5302C280.102 40.3926 279.11 41.186 278.092 41.9794C276.074 43.5663 273.979 45.0582 271.849 46.4984C269.718 47.9387 267.537 49.3357 265.355 50.6466C263.173 51.9575 260.948 53.2769 258.68 54.4584Z" fill="#ABBAC2"/>
<path d="M262.302 59.2384L265.467 57.0393L268.649 54.8832L275.022 50.5712C277.152 49.1569 279.248 47.6908 281.352 46.2592C283.457 44.8276 285.526 43.2925 287.493 41.6367C287.053 42.1024 286.63 42.5767 286.147 43.0252L284.733 44.3447C283.75 45.2071 282.767 46.0005 281.749 46.7853C279.731 48.3807 277.627 49.8727 275.505 51.3129C273.384 52.7531 271.193 54.1502 269.011 55.4611C266.829 56.7719 264.587 58.0569 262.302 59.2384Z" fill="#ABBAC2"/>
<path d="M265.924 64.0172L269.089 61.8181L272.271 59.662L278.644 55.35C280.774 53.9271 282.87 52.4696 284.974 51.038C287.079 49.6064 289.148 48.0713 291.115 46.4155C290.675 46.8812 290.252 47.3555 289.769 47.804L288.355 49.1148C287.372 49.9773 286.38 50.7793 285.371 51.5641C283.344 53.1595 281.249 54.6515 279.127 56.0917C277.006 57.5319 274.815 58.9204 272.625 60.2399C270.434 61.5593 268.209 62.8357 265.924 64.0172Z" fill="#ABBAC2"/>
</svg>
